<?xml version="1.0" encoding="UTF-8"?>
<svg xmlns="http://www.w3.org/2000/svg" width="1080" height="520" viewBox="0 0 1080 520" role="img" aria-label="Sample emotional evidence diagram">
  <rect x="0" y="0" width="1080" height="520" fill="#f7f8fb"/>
  <text x="28" y="38" font-size="24" font-family="Arial" fill="#1a1a1a">Emotional Experience Evidence Diagram (Sample)</text>
  <text x="28" y="64" font-size="14" font-family="Arial" fill="#505050">User: Example | Personality: Henry | Episodes: 24</text>

  <path d="M 220 250 L 220 110 A 140 140 0 0 1 256.235 385.229 Z" fill="#3cb371" opacity="0.92"/>
  <path d="M 220 250 L 256.235 385.229 A 140 140 0 0 1 84.771 213.765 Z" fill="#5f9ea0" opacity="0.92"/>
  <path d="M 220 250 L 84.771 213.765 A 140 140 0 0 1 220 110 Z" fill="#cc4c4c" opacity="0.92"/>
  <circle cx="220" cy="250" r="62" fill="#f7f8fb"/>
  <text x="98" y="430" font-size="14" font-family="Arial" fill="#3cb371">Happy</text>
  <text x="188" y="430" font-size="14" font-family="Arial" fill="#5f9ea0">Neutral</text>
  <text x="290" y="430" font-size="14" font-family="Arial" fill="#cc4c4c">Sad</text>
  <text x="98" y="454" font-size="13" font-family="Arial" fill="#303030">Happy: 11  Neutral: 8  Sad: 5</text>
  <text x="98" y="474" font-size="12" font-family="Arial" fill="#505050">Share: Happy 45.8%  Neutral 33.3%  Sad 20.8%</text>

  <rect x="430" y="110" width="600" height="340" fill="#ffffff" stroke="#d7dce5" stroke-width="1"/>
  <line x1="430" y1="280" x2="1030" y2="280" stroke="#d1d1d1" stroke-dasharray="4,4"/>
  <text x="430" y="95" font-size="16" font-family="Arial" fill="#1a1a1a">User Mood Trendline</text>
  <polyline fill="none" stroke="#2f5fd0" stroke-width="2" points="430,200 480.91,220 531.82,245 582.73,290 633.64,338 684.55,360 735.45,300 786.36,248 837.27,206 888.18,180 939.09,162 990,148"/>
  <g transform="translate(821,162) scale(0.85)">
    <circle cx="16" cy="14" r="9" fill="#f7c9a9"/>
    <circle cx="13" cy="13" r="1.2" fill="#2a2a2a"/>
    <circle cx="19" cy="13" r="1.2" fill="#2a2a2a"/>
    <path d="M12 18 Q16 21 20 18" stroke="#8a4f3f" stroke-width="1.6" fill="none"/>
  </g>
  <g transform="translate(444,406) scale(0.85)">
    <circle cx="10" cy="10" r="6" fill="#b9854b"/>
    <circle cx="30" cy="10" r="6" fill="#b9854b"/>
    <circle cx="20" cy="20" r="14" fill="#c8945a"/>
    <circle cx="15" cy="18" r="1.3" fill="#2a2a2a"/>
    <circle cx="25" cy="18" r="1.3" fill="#2a2a2a"/>
    <circle cx="20" cy="22" r="2" fill="#4a3323"/>
    <path d="M14 26 Q20 30 26 26" stroke="#4a3323" stroke-width="1.7" fill="none"/>
  </g>
  <line x1="478" y1="420" x2="1010" y2="420" stroke="#607888" stroke-width="2" stroke-dasharray="5,4"/>
  <polygon points="1010,420 1002,416 1002,424" fill="#607888"/>
  <line x1="837" y1="420" x2="837" y2="186" stroke="#6a7d8f" stroke-width="1.6" stroke-dasharray="2.5,3"/>
  <circle cx="837" cy="206" r="3.2" fill="#ffffff" stroke="#6a7d8f" stroke-width="1.4"/>
  <line x1="851" y1="178" x2="867" y2="168" stroke="#2f5fd0" stroke-width="2"/>
  <polygon points="867,168 860,166.2 862.9,173.1" fill="#2f5fd0"/>
  <text x="946" y="124" font-size="12" font-family="Arial" fill="#4b4b4b">Happy (+1)</text>
  <text x="946" y="284" font-size="12" font-family="Arial" fill="#4b4b4b">Neutral (0)</text>
  <text x="946" y="444" font-size="12" font-family="Arial" fill="#4b4b4b">Sad (-1)</text>

  <text x="28" y="495" font-size="12" font-family="Arial" fill="#606060">Sample only. Real resuls are generated during your interaction.</text>
</svg>
